<?xml version="1.0" encoding="UTF-8"?>
<svg id="Layer_2" data-name="Layer 2" xmlns="http://www.w3.org/2000/svg" viewBox="0 0 964.23 202.04">
  <defs>
    <style>
      .cls-1 {
        fill: #201b51;
      }

      .cls-2 {
        fill: #1ebef0;
      }

      .cls-3 {
        fill: #1f8acb;
      }

      .cls-4 {
        fill: #211c50;
      }

      .cls-5 {
        fill: #1abef0;
      }

      .cls-6 {
        fill: #3cb87c;
      }
    </style>
  </defs>
  <g id="Layer_1-2" data-name="Layer 1">
    <g>
      <g>
        <circle class="cls-3" cx="124.56" cy="77.51" r="7.16"/>
        <circle class="cls-3" cx="153.75" cy="48.34" r="7.16"/>
        <circle class="cls-6" cx="180.97" cy="21.12" r="7.16"/>
        <circle class="cls-5" cx="138.87" cy="63.2" r="5.86"/>
        <circle class="cls-3" cx="167.21" cy="34.88" r="5.86"/>
        <path class="cls-4" d="M37.17,169.5h3.8c1.25.02,2.29-1.01,2.29-2.26h0c0-1.25-1.02-2.29-2.28-2.29h-3.8v-3.82c.01-1.25-1.01-2.29-2.26-2.29h0c-1.25,0-2.29,1.02-2.29,2.28v3.8h-3.82c-1.25-.01-2.29,1.01-2.29,2.26h0c0,1.25,1.02,2.29,2.28,2.29h3.8v3.82c-.01,1.25,1.01,2.29,2.26,2.29h0c1.25,0,2.29-1.02,2.29-2.28v-3.8h.02Z"/>
        <circle class="cls-3" cx="77.52" cy="124.56" r="7.16"/>
        <circle class="cls-2" cx="48.34" cy="153.75" r="7.16"/>
        <circle class="cls-3" cx="21.12" cy="180.97" r="7.16"/>
        <circle class="cls-3" cx="63.21" cy="138.87" r="5.86"/>
        <circle class="cls-3" cx="21.2" cy="20.9" r="7.16"/>
        <circle class="cls-3" cx="77.55" cy="77.49" r="7.16"/>
        <circle class="cls-3" cx="124.42" cy="124.37" r="7.16"/>
        <circle class="cls-3" cx="153.61" cy="153.56" r="7.16"/>
        <circle class="cls-5" cx="180.83" cy="180.77" r="7.16"/>
        <circle class="cls-6" cx="48.52" cy="48.46" r="7.16"/>
        <circle class="cls-6" cx="139.19" cy="139.23" r="5.86"/>
        <circle class="cls-3" cx="34.98" cy="34.33" r="5.86"/>
        <path class="cls-4" d="M58.29,69.01c-1.53-1.54-1.52-4.03.02-5.55l8.16-8.1h0l1.85,1.86c1.53,1.54,1.52,4.03-.02,5.55l-8.16,8.1h0l-1.85-1.86Z"/>
        <path class="cls-3" d="M162.17,173.14c-1.53-1.54-1.52-4.03.02-5.55l8.16-8.1h0l1.85,1.86c1.53,1.54,1.52,4.03-.02,5.55l-8.16,8.1h0l-1.85-1.86Z"/>
        <circle class="cls-2" cx="101.02" cy="73.37" r="6.01"/>
        <circle class="cls-3" cx="101.02" cy="129.04" r="6.01"/>
        <circle class="cls-3" cx="101.02" cy="163.7" r="6.01"/>
        <circle class="cls-3" cx="101.02" cy="196.03" r="6.01"/>
        <circle class="cls-3" cx="101.02" cy="38.88" r="6.01"/>
        <circle class="cls-3" cx="101.02" cy="6.01" r="6.01"/>
        <circle class="cls-5" cx="101.02" cy="146.64" r="4.92"/>
        <circle class="cls-5" cx="101.02" cy="179.98" r="4.92"/>
        <circle class="cls-3" cx="101.02" cy="56.2" r="4.92"/>
        <circle class="cls-5" cx="101.02" cy="22.46" r="4.92"/>
        <circle class="cls-3" cx="73.37" cy="101.02" r="6.01"/>
        <circle class="cls-3" cx="129.04" cy="101.02" r="6.01"/>
        <circle class="cls-3" cx="163.7" cy="101.02" r="6.01"/>
        <circle class="cls-2" cx="196.03" cy="101.02" r="6.01"/>
        <circle class="cls-5" cx="38.88" cy="101.02" r="6.01"/>
        <circle class="cls-2" cx="6.01" cy="101.02" r="6.01"/>
        <circle class="cls-3" cx="55.6" cy="101.02" r="4.92"/>
        <circle class="cls-3" cx="22.26" cy="101.02" r="4.92"/>
        <circle class="cls-2" cx="146.03" cy="101.02" r="4.92"/>
        <circle class="cls-6" cx="179.79" cy="101.02" r="4.92"/>
        <circle class="cls-4" cx="101.11" cy="102.2" r="12.94"/>
      </g>
      <g>
        <path class="cls-1" d="M269,155.17h-10.57V60.96h-34.78v-9.68h80.12v9.68h-34.78v94.2Z"/>
        <path class="cls-1" d="M394.18,138.73c-1.76,2.64-3.94,5.14-6.53,7.48-2.59,2.35-5.55,4.38-8.88,6.09-3.33,1.71-6.92,3.06-10.79,4.03-3.87.98-7.95,1.47-12.25,1.47-7.73,0-14.89-1.37-21.5-4.11-6.6-2.74-12.33-6.53-17.17-11.37-4.84-4.84-8.63-10.59-11.37-17.24-2.74-6.65-4.11-13.94-4.11-21.86s1.37-15.21,4.11-21.86c2.74-6.65,6.53-12.4,11.37-17.24s10.56-8.63,17.17-11.37c6.6-2.74,13.77-4.11,21.5-4.11,6.46,0,12.91,1.27,19.37,3.81,6.46,2.54,11.98,6.75,16.58,12.62l-9.24,6.9c-1.08-1.66-2.54-3.32-4.4-4.99-1.86-1.66-3.99-3.13-6.38-4.4-2.4-1.27-4.97-2.3-7.7-3.08-2.74-.78-5.48-1.17-8.22-1.17-6.65,0-12.62,1.22-17.9,3.67-5.28,2.45-9.76,5.72-13.43,9.83-3.67,4.11-6.48,8.88-8.44,14.31-1.96,5.43-2.93,11.13-2.93,17.09s.98,11.66,2.93,17.09c1.96,5.43,4.77,10.2,8.44,14.31,3.67,4.11,8.14,7.39,13.43,9.83,5.28,2.45,11.25,3.67,17.9,3.67,2.74,0,5.45-.24,8.14-.73,2.69-.49,5.33-1.32,7.92-2.49,2.59-1.17,5.04-2.76,7.34-4.77,2.3-2,4.42-4.52,6.38-7.56l8.66,6.16Z"/>
        <path class="cls-1" d="M417.36,145.48h55.61v9.68h-66.18V51.28h64.42v9.68h-53.85v35.36h50.33v9.68h-50.33v39.47Z"/>
        <path class="cls-1" d="M515.37,155.17h-10.86l-27.88-68.67h11.45l22.01,57.81h.29l21.86-57.81h11.01l-27.88,68.67Z"/>
        <path class="cls-1" d="M594.76,113.05v-1.76c0-11.83-5.87-17.75-17.61-17.75-8.02,0-15.02,2.69-20.98,8.07l-5.87-6.9c6.46-6.65,16.14-9.98,29.05-9.98,3.33,0,6.53.49,9.61,1.47,3.08.98,5.75,2.47,8,4.48,2.25,2.01,4.06,4.53,5.43,7.56,1.37,3.03,2.05,6.65,2.05,10.86v30.67c0,2.64.12,5.41.37,8.29.24,2.89.51,5.26.81,7.12h-9.39c-.29-1.66-.51-3.47-.66-5.43-.15-1.96-.22-3.86-.22-5.72h-.29c-2.84,4.6-6.19,7.9-10.05,9.9-3.86,2-8.58,3.01-14.16,3.01-3.03,0-5.97-.42-8.8-1.25-2.84-.83-5.36-2.1-7.56-3.81-2.2-1.71-3.96-3.81-5.28-6.31-1.32-2.49-1.98-5.4-1.98-8.73,0-5.58,1.44-9.95,4.33-13.13,2.88-3.18,6.5-5.55,10.86-7.12,4.35-1.56,9-2.54,13.94-2.93,4.94-.39,9.46-.59,13.57-.59h4.84ZM589.77,120.98c-2.45,0-5.5.12-9.17.37-3.67.24-7.19.83-10.57,1.76-3.37.93-6.26,2.37-8.66,4.33-2.4,1.96-3.59,4.65-3.59,8.07,0,2.25.46,4.18,1.39,5.8.93,1.62,2.18,2.94,3.74,3.96,1.56,1.03,3.3,1.76,5.21,2.2,1.91.44,3.84.66,5.8.66,3.52,0,6.58-.59,9.17-1.76,2.59-1.17,4.77-2.76,6.53-4.77,1.76-2,3.06-4.35,3.89-7.04.83-2.69,1.25-5.55,1.25-8.58v-4.99h-4.99Z"/>
        <path class="cls-1" d="M633.64,155.17h-9.69V44.23h9.69v110.93Z"/>
        <path class="cls-1" d="M701.43,155.17c-.2-1.86-.32-3.69-.37-5.5-.05-1.81-.07-3.64-.07-5.5h-.29c-1.08,1.86-2.45,3.57-4.11,5.14-1.66,1.57-3.52,2.91-5.58,4.03-2.05,1.13-4.23,2-6.53,2.64-2.3.64-4.57.95-6.82.95-8.8,0-15.31-2.32-19.52-6.97-4.21-4.64-6.31-11.27-6.31-19.88v-43.58h9.69v38c0,3.81.29,7.19.88,10.12.59,2.93,1.59,5.41,3.01,7.41,1.42,2.01,3.32,3.52,5.72,4.55,2.4,1.03,5.4,1.54,9.02,1.54.49,0,1.86-.19,4.11-.59,2.25-.39,4.62-1.47,7.12-3.23s4.72-4.4,6.68-7.92c1.96-3.52,2.94-8.41,2.94-14.67v-35.22h9.68v53.56c0,1.86.07,4.21.22,7.04.15,2.84.32,5.53.51,8.07h-9.98Z"/>
        <path class="cls-1" d="M772.3,113.05v-1.76c0-11.83-5.87-17.75-17.61-17.75-8.02,0-15.02,2.69-20.98,8.07l-5.87-6.9c6.46-6.65,16.14-9.98,29.05-9.98,3.33,0,6.53.49,9.61,1.47,3.08.98,5.75,2.47,8,4.48,2.25,2.01,4.06,4.53,5.43,7.56,1.37,3.03,2.05,6.65,2.05,10.86v30.67c0,2.64.12,5.41.37,8.29.24,2.89.51,5.26.81,7.12h-9.39c-.29-1.66-.51-3.47-.66-5.43-.15-1.96-.22-3.86-.22-5.72h-.29c-2.84,4.6-6.19,7.9-10.05,9.9-3.86,2-8.58,3.01-14.16,3.01-3.03,0-5.97-.42-8.8-1.25-2.84-.83-5.36-2.1-7.56-3.81-2.2-1.71-3.96-3.81-5.28-6.31-1.32-2.49-1.98-5.4-1.98-8.73,0-5.58,1.44-9.95,4.33-13.13,2.88-3.18,6.5-5.55,10.86-7.12,4.35-1.56,9-2.54,13.94-2.93,4.94-.39,9.46-.59,13.57-.59h4.84ZM767.31,120.98c-2.45,0-5.5.12-9.17.37-3.67.24-7.19.83-10.57,1.76-3.37.93-6.26,2.37-8.66,4.33-2.4,1.96-3.59,4.65-3.59,8.07,0,2.25.46,4.18,1.39,5.8.93,1.62,2.18,2.94,3.74,3.96,1.56,1.03,3.3,1.76,5.21,2.2,1.91.44,3.84.66,5.8.66,3.52,0,6.58-.59,9.17-1.76,2.59-1.17,4.77-2.76,6.53-4.77,1.76-2,3.06-4.35,3.89-7.04.83-2.69,1.25-5.55,1.25-8.58v-4.99h-4.99Z"/>
        <path class="cls-1" d="M834.81,95.3h-19.81v40.5c0,2.55.24,4.62.73,6.24.49,1.61,1.17,2.86,2.05,3.74s1.93,1.49,3.16,1.83c1.22.34,2.57.51,4.03.51,1.66,0,3.37-.24,5.14-.73,1.76-.49,3.37-1.12,4.84-1.91l.44,8.95c-3.62,1.66-7.97,2.49-13.06,2.49-1.86,0-3.79-.24-5.8-.73-2.01-.49-3.84-1.42-5.5-2.79-1.66-1.37-3.03-3.23-4.11-5.58-1.08-2.35-1.62-5.43-1.62-9.24v-43.29h-14.53v-8.8h14.53v-19.37h9.69v19.37h19.81v8.8Z"/>
        <path class="cls-1" d="M912.28,120.83c0,5.19-.91,9.98-2.71,14.38-1.81,4.4-4.33,8.22-7.56,11.44s-7.07,5.75-11.52,7.56c-4.45,1.81-9.37,2.72-14.75,2.72s-10.15-.91-14.6-2.72c-4.45-1.81-8.29-4.33-11.52-7.56s-5.75-7.04-7.56-11.44c-1.81-4.4-2.71-9.19-2.71-14.38s.9-9.98,2.71-14.38c1.81-4.4,4.33-8.22,7.56-11.45,3.23-3.23,7.06-5.75,11.52-7.56,4.45-1.81,9.32-2.71,14.6-2.71s10.29.91,14.75,2.71c4.45,1.81,8.29,4.33,11.52,7.56,3.23,3.23,5.75,7.04,7.56,11.45,1.81,4.4,2.71,9.2,2.71,14.38ZM901.72,120.83c0-3.81-.61-7.38-1.83-10.71-1.22-3.32-2.96-6.21-5.21-8.66-2.25-2.44-4.97-4.38-8.14-5.8-3.18-1.42-6.77-2.13-10.78-2.13s-7.61.71-10.79,2.13c-3.18,1.42-5.87,3.35-8.07,5.8-2.2,2.45-3.91,5.33-5.14,8.66-1.22,3.33-1.83,6.9-1.83,10.71s.61,7.39,1.83,10.71c1.22,3.33,2.93,6.21,5.14,8.66,2.2,2.45,4.89,4.38,8.07,5.8,3.18,1.42,6.77,2.13,10.79,2.13s7.6-.71,10.78-2.13c3.18-1.42,5.89-3.35,8.14-5.8,2.25-2.44,3.98-5.33,5.21-8.66,1.22-3.32,1.83-6.9,1.83-10.71Z"/>
        <path class="cls-1" d="M925.78,107.92c0-3.03-.07-6.11-.22-9.24-.15-3.13-.27-7.19-.37-12.18h9.54v12.77h.29c.68-1.86,1.66-3.64,2.93-5.36,1.27-1.71,2.81-3.25,4.62-4.62,1.81-1.37,3.91-2.47,6.31-3.3,2.4-.83,5.11-1.25,8.14-1.25,2.74,0,5.14.29,7.19.88l-1.91,9.54c-1.27-.49-3.13-.73-5.58-.73-3.72,0-6.9.71-9.54,2.13-2.64,1.42-4.84,3.23-6.6,5.43-1.76,2.2-3.06,4.57-3.89,7.12-.83,2.55-1.25,4.99-1.25,7.34v38.74h-9.68v-47.25Z"/>
      </g>
    </g>
  </g>
</svg>